<svg xmlns="http://www.w3.org/2000/svg" viewBox="0 0 1024 1024" width="1024" height="1024">
<defs>
  <radialGradient id="shine" cx="0.2" cy="0.1" r="0.9"><stop offset="0" stop-color="#fff" stop-opacity="0.22"/><stop offset="0.55" stop-color="#fff" stop-opacity="0"/></radialGradient>
  <radialGradient id="glow" cx="0.5" cy="0.5" r="0.5"><stop offset="0" stop-color="#fff" stop-opacity="0.30"/><stop offset="1" stop-color="#fff" stop-opacity="0"/></radialGradient>
  <filter id="sh" x="-30%" y="-30%" width="160%" height="160%"><feDropShadow dx="0" dy="18" stdDeviation="18" flood-color="#4a0a10" flood-opacity="0.35"/></filter>
  <radialGradient id="flesh" cx="0.5" cy="0.5" r="0.5">
      <stop offset="0" stop-color="#ffd27a"/><stop offset="1" stop-color="#ffa62b"/></radialGradient>
    <linearGradient id="rind" x1="0" y1="0" x2="1" y2="1"><stop offset="0" stop-color="#ffb13b"/><stop offset="1" stop-color="#f07a12"/></linearGradient>
</defs>
<rect width="1024" height="1024"  fill="#d1464c"/>
<rect width="1024" height="1024"  fill="url(#shine)"/>
<circle cx="512" cy="540" r="420" fill="url(#glow)"/>
<g transform="translate(512 512) scale(1.16) translate(-512 -540)"><g filter="url(#sh)"><circle cx="512" cy="540" r="318" fill="url(#rind)"/><circle cx="512" cy="540" r="288" fill="#fff4dc"/><circle cx="512" cy="540" r="272" fill="#ffe7b0"/><path d="M532.9 546.8 L771.8 551.3 A260 260 0 0 1 728.8 683.5 Z" fill="url(#flesh)" stroke="#ffcf7e" stroke-width="8" stroke-linejoin="round"/><ellipse cx="648.0" cy="584.2" rx="14" ry="7" transform="rotate(18 648.0 584.2)" fill="#fff" fill-opacity="0.5"/><ellipse cx="704.9" cy="602.7" rx="14" ry="7" transform="rotate(18 704.9 602.7)" fill="#fff" fill-opacity="0.4"/><path d="M524.9 557.8 L715.5 701.9 A260 260 0 0 1 603.1 783.5 Z" fill="url(#flesh)" stroke="#ffcf7e" stroke-width="8" stroke-linejoin="round"/><ellipse cx="596.1" cy="655.7" rx="14" ry="7" transform="rotate(54 596.1 655.7)" fill="#fff" fill-opacity="0.5"/><ellipse cx="631.2" cy="704.1" rx="14" ry="7" transform="rotate(54 631.2 704.1)" fill="#fff" fill-opacity="0.4"/><path d="M512.0 562.0 L581.5 790.5 A260 260 0 0 1 442.5 790.5 Z" fill="url(#flesh)" stroke="#ffcf7e" stroke-width="8" stroke-linejoin="round"/><ellipse cx="512.0" cy="683.0" rx="14" ry="7" transform="rotate(90 512.0 683.0)" fill="#fff" fill-opacity="0.5"/><ellipse cx="512.0" cy="742.8" rx="14" ry="7" transform="rotate(90 512.0 742.8)" fill="#fff" fill-opacity="0.4"/><path d="M499.1 557.8 L420.9 783.5 A260 260 0 0 1 308.5 701.9 Z" fill="url(#flesh)" stroke="#ffcf7e" stroke-width="8" stroke-linejoin="round"/><ellipse cx="427.9" cy="655.7" rx="14" ry="7" transform="rotate(126 427.9 655.7)" fill="#fff" fill-opacity="0.5"/><ellipse cx="392.8" cy="704.1" rx="14" ry="7" transform="rotate(126 392.8 704.1)" fill="#fff" fill-opacity="0.4"/><path d="M491.1 546.8 L295.2 683.5 A260 260 0 0 1 252.2 551.3 Z" fill="url(#flesh)" stroke="#ffcf7e" stroke-width="8" stroke-linejoin="round"/><ellipse cx="376.0" cy="584.2" rx="14" ry="7" transform="rotate(162 376.0 584.2)" fill="#fff" fill-opacity="0.5"/><ellipse cx="319.1" cy="602.7" rx="14" ry="7" transform="rotate(162 319.1 602.7)" fill="#fff" fill-opacity="0.4"/><path d="M491.1 533.2 L252.2 528.7 A260 260 0 0 1 295.2 396.5 Z" fill="url(#flesh)" stroke="#ffcf7e" stroke-width="8" stroke-linejoin="round"/><ellipse cx="376.0" cy="495.8" rx="14" ry="7" transform="rotate(198 376.0 495.8)" fill="#fff" fill-opacity="0.5"/><ellipse cx="319.1" cy="477.3" rx="14" ry="7" transform="rotate(198 319.1 477.3)" fill="#fff" fill-opacity="0.4"/><path d="M499.1 522.2 L308.5 378.1 A260 260 0 0 1 420.9 296.5 Z" fill="url(#flesh)" stroke="#ffcf7e" stroke-width="8" stroke-linejoin="round"/><ellipse cx="427.9" cy="424.3" rx="14" ry="7" transform="rotate(234 427.9 424.3)" fill="#fff" fill-opacity="0.5"/><ellipse cx="392.8" cy="375.9" rx="14" ry="7" transform="rotate(234 392.8 375.9)" fill="#fff" fill-opacity="0.4"/><path d="M512.0 518.0 L442.5 289.5 A260 260 0 0 1 581.5 289.5 Z" fill="url(#flesh)" stroke="#ffcf7e" stroke-width="8" stroke-linejoin="round"/><ellipse cx="512.0" cy="397.0" rx="14" ry="7" transform="rotate(270 512.0 397.0)" fill="#fff" fill-opacity="0.5"/><ellipse cx="512.0" cy="337.2" rx="14" ry="7" transform="rotate(270 512.0 337.2)" fill="#fff" fill-opacity="0.4"/><path d="M524.9 522.2 L603.1 296.5 A260 260 0 0 1 715.5 378.1 Z" fill="url(#flesh)" stroke="#ffcf7e" stroke-width="8" stroke-linejoin="round"/><ellipse cx="596.1" cy="424.3" rx="14" ry="7" transform="rotate(306 596.1 424.3)" fill="#fff" fill-opacity="0.5"/><ellipse cx="631.2" cy="375.9" rx="14" ry="7" transform="rotate(306 631.2 375.9)" fill="#fff" fill-opacity="0.4"/><path d="M532.9 533.2 L728.8 396.5 A260 260 0 0 1 771.8 528.7 Z" fill="url(#flesh)" stroke="#ffcf7e" stroke-width="8" stroke-linejoin="round"/><ellipse cx="648.0" cy="495.8" rx="14" ry="7" transform="rotate(342 648.0 495.8)" fill="#fff" fill-opacity="0.5"/><ellipse cx="704.9" cy="477.3" rx="14" ry="7" transform="rotate(342 704.9 477.3)" fill="#fff" fill-opacity="0.4"/><circle cx="512" cy="540" r="30" fill="#fff4dc"/><circle cx="512" cy="548" r="132" fill="#fff4dc" fill-opacity="0.92"/><ellipse cx="466" cy="534" rx="18.04" ry="22" fill="#4a2208"/><circle cx="472.16" cy="525.64" r="7.92" fill="#fff"/><circle cx="460.5" cy="541.7" r="3.3" fill="#fff" fill-opacity="0.9"/><ellipse cx="558" cy="534" rx="18.04" ry="22" fill="#4a2208"/><circle cx="564.16" cy="525.64" r="7.92" fill="#fff"/><circle cx="552.5" cy="541.7" r="3.3" fill="#fff" fill-opacity="0.9"/><ellipse cx="434" cy="578" rx="20" ry="12.4" fill="#ff8c7a" fill-opacity="0.8"/><ellipse cx="590" cy="578" rx="20" ry="12.4" fill="#ff8c7a" fill-opacity="0.8"/><path d="M490 574 Q512 598.2 534 574" stroke="#4a2208" stroke-width="10" fill="none" stroke-linecap="round"/><ellipse cx="322" cy="340" rx="44" ry="20" transform="rotate(-40 322 340)" fill="#fff" fill-opacity="0.55"/></g></g>
</svg>